<mxfile host="Electron" modified="2024-02-22T08:38:04.032Z" agent="Mozilla/5.0 (Macintosh; Intel Mac OS X 10_15_7) AppleWebKit/537.36 (KHTML, like Gecko) draw.io/22.0.3 Chrome/114.0.5735.289 Electron/25.8.4 Safari/537.36" etag="uhIQiPfeUUdYJZLj2OeV" version="22.0.3" type="device">
  <diagram name="Page-1" id="Km9-SXTGCsu9OrTG6rWN">
    <mxGraphModel dx="1738" dy="976" grid="0" gridSize="10" guides="1" tooltips="1" connect="1" arrows="1" fold="1" page="0" pageScale="1" pageWidth="1100" pageHeight="850" math="0" shadow="0">
      <root>
        <mxCell id="0" />
        <mxCell id="1" parent="0" />
        <mxCell id="IrmPbO5Ex_8dqWtmPrFu-1" value="Banner" style="shape=datastore;whiteSpace=wrap;html=1;" parent="1" vertex="1">
          <mxGeometry x="360.55" y="110" width="100" height="60" as="geometry" />
        </mxCell>
        <mxCell id="IrmPbO5Ex_8dqWtmPrFu-2" value="" style="image;html=1;image=img/lib/clip_art/computers/Laptop_128x128.png" parent="1" vertex="1">
          <mxGeometry x="370.55" y="982.5" width="80" height="80" as="geometry" />
        </mxCell>
        <mxCell id="IrmPbO5Ex_8dqWtmPrFu-3" value="" style="dashed=0;outlineConnect=0;html=1;align=center;labelPosition=center;verticalLabelPosition=bottom;verticalAlign=top;shape=mxgraph.weblogos.onedrive;fillColor=#094AB1;strokeColor=none" parent="1" vertex="1">
          <mxGeometry x="363.89" y="682.5" width="71.2" height="43.2" as="geometry" />
        </mxCell>
        <mxCell id="IrmPbO5Ex_8dqWtmPrFu-5" value="" style="shape=image;verticalLabelPosition=bottom;labelBackgroundColor=default;verticalAlign=top;aspect=fixed;imageAspect=0;image=https://seeklogo.com/images/D/dbt-logo-500AB0BAA7-seeklogo.com.png;" parent="1" vertex="1">
          <mxGeometry x="410.34999999999997" y="540" width="60" height="60" as="geometry" />
        </mxCell>
        <mxCell id="IrmPbO5Ex_8dqWtmPrFu-7" value="" style="shape=image;verticalLabelPosition=bottom;labelBackgroundColor=default;verticalAlign=top;aspect=fixed;imageAspect=0;image=https://upload.wikimedia.org/wikipedia/commons/thumb/c/c3/Python-logo-notext.svg/1869px-Python-logo-notext.svg.png;" parent="1" vertex="1">
          <mxGeometry x="368.62" y="460" width="63.87" height="70" as="geometry" />
        </mxCell>
        <mxCell id="IrmPbO5Ex_8dqWtmPrFu-14" value="" style="shape=image;verticalLabelPosition=bottom;labelBackgroundColor=default;verticalAlign=top;aspect=fixed;imageAspect=0;image=https://gitlab.com/uploads/-/system/project/avatar/49184666/duckdb.png;" parent="1" vertex="1">
          <mxGeometry x="328.62" y="535" width="70" height="70" as="geometry" />
        </mxCell>
        <mxCell id="IrmPbO5Ex_8dqWtmPrFu-17" value="IOE" style="shape=datastore;whiteSpace=wrap;html=1;" parent="1" vertex="1">
          <mxGeometry x="97.68" y="619.9000000000001" width="100" height="60" as="geometry" />
        </mxCell>
        <mxCell id="IrmPbO5Ex_8dqWtmPrFu-18" value="" style="shape=image;verticalLabelPosition=bottom;labelBackgroundColor=default;verticalAlign=top;aspect=fixed;imageAspect=0;image=https://kiltintelligence.files.wordpress.com/2020/08/11625-app-icon-ibm-cognos.png;" parent="1" vertex="1">
          <mxGeometry x="102.68" y="698.3" width="90" height="90" as="geometry" />
        </mxCell>
        <mxCell id="IrmPbO5Ex_8dqWtmPrFu-19" value="" style="shape=image;verticalLabelPosition=bottom;labelBackgroundColor=default;verticalAlign=top;aspect=fixed;imageAspect=0;image=https://debruyn.dev/2023/all-microsoft-fabric-icons-for-diagramming/Fabric_final_x256.png;" parent="1" vertex="1">
          <mxGeometry x="620" y="622.5" width="60" height="60" as="geometry" />
        </mxCell>
        <mxCell id="IrmPbO5Ex_8dqWtmPrFu-20" value="" style="shape=image;verticalLabelPosition=bottom;labelBackgroundColor=default;verticalAlign=top;aspect=fixed;imageAspect=0;image=https://seeklogo.com/images/D/dbt-logo-500AB0BAA7-seeklogo.com.png;" parent="1" vertex="1">
          <mxGeometry x="411.41999999999996" y="882.5" width="60" height="60" as="geometry" />
        </mxCell>
        <mxCell id="IrmPbO5Ex_8dqWtmPrFu-21" value="" style="shape=image;verticalLabelPosition=bottom;labelBackgroundColor=default;verticalAlign=top;aspect=fixed;imageAspect=0;image=https://upload.wikimedia.org/wikipedia/commons/thumb/c/c3/Python-logo-notext.svg/1869px-Python-logo-notext.svg.png;" parent="1" vertex="1">
          <mxGeometry x="369.69" y="802.5" width="63.87" height="70" as="geometry" />
        </mxCell>
        <mxCell id="IrmPbO5Ex_8dqWtmPrFu-22" value="" style="shape=image;verticalLabelPosition=bottom;labelBackgroundColor=default;verticalAlign=top;aspect=fixed;imageAspect=0;image=https://gitlab.com/uploads/-/system/project/avatar/49184666/duckdb.png;" parent="1" vertex="1">
          <mxGeometry x="329.69" y="877.5" width="70" height="70" as="geometry" />
        </mxCell>
        <mxCell id="IrmPbO5Ex_8dqWtmPrFu-23" value="" style="image;points=[];aspect=fixed;html=1;align=center;shadow=0;dashed=0;image=img/lib/allied_telesis/storage/Datacenter_Server_Half_Rack_ToR.svg;" parent="1" vertex="1">
          <mxGeometry x="366.44999999999993" y="210" width="88.2" height="114.6" as="geometry" />
        </mxCell>
        <mxCell id="IrmPbO5Ex_8dqWtmPrFu-24" value="" style="shape=image;verticalLabelPosition=bottom;labelBackgroundColor=default;verticalAlign=top;aspect=fixed;imageAspect=0;image=https://upload.wikimedia.org/wikipedia/commons/thumb/e/e9/Jenkins_logo.svg/1200px-Jenkins_logo.svg.png;" parent="1" vertex="1">
          <mxGeometry x="376.28" y="352.3" width="50.69" height="70" as="geometry" />
        </mxCell>
        <mxCell id="aXIII2kYAIaUGzxp5K-w-3" value="" style="endArrow=classic;html=1;rounded=0;" parent="1" edge="1">
          <mxGeometry width="50" height="50" relative="1" as="geometry">
            <mxPoint x="320" y="140" as="sourcePoint" />
            <mxPoint x="320" y="610" as="targetPoint" />
          </mxGeometry>
        </mxCell>
        <mxCell id="aXIII2kYAIaUGzxp5K-w-4" value="" style="endArrow=classic;html=1;rounded=0;" parent="1" edge="1">
          <mxGeometry width="50" height="50" relative="1" as="geometry">
            <mxPoint x="497" y="140" as="sourcePoint" />
            <mxPoint x="497" y="610" as="targetPoint" />
          </mxGeometry>
        </mxCell>
        <mxCell id="aXIII2kYAIaUGzxp5K-w-5" value="" style="endArrow=classic;html=1;rounded=0;" parent="1" edge="1">
          <mxGeometry width="50" height="50" relative="1" as="geometry">
            <mxPoint x="500" y="670" as="sourcePoint" />
            <mxPoint x="590" y="670" as="targetPoint" />
          </mxGeometry>
        </mxCell>
        <mxCell id="aXIII2kYAIaUGzxp5K-w-6" value="" style="sketch=0;outlineConnect=0;fontColor=white;gradientColor=none;fillColor=white;strokeColor=none;dashed=0;verticalLabelPosition=bottom;verticalAlign=top;align=center;html=1;fontSize=12;fontStyle=0;aspect=fixed;pointerEvents=1;shape=mxgraph.aws4.question;" parent="1" vertex="1">
          <mxGeometry x="620" y="710.3" width="41" height="78" as="geometry" />
        </mxCell>
        <mxCell id="aXIII2kYAIaUGzxp5K-w-7" value="" style="endArrow=classic;html=1;rounded=0;" parent="1" edge="1">
          <mxGeometry width="50" height="50" relative="1" as="geometry">
            <mxPoint x="500" y="730" as="sourcePoint" />
            <mxPoint x="590" y="730" as="targetPoint" />
          </mxGeometry>
        </mxCell>
        <mxCell id="aXIII2kYAIaUGzxp5K-w-8" value="" style="endArrow=classic;html=1;rounded=0;" parent="1" edge="1">
          <mxGeometry width="50" height="50" relative="1" as="geometry">
            <mxPoint x="320" y="670" as="sourcePoint" />
            <mxPoint x="220" y="670" as="targetPoint" />
          </mxGeometry>
        </mxCell>
        <mxCell id="aXIII2kYAIaUGzxp5K-w-9" value="" style="endArrow=classic;html=1;rounded=0;" parent="1" edge="1">
          <mxGeometry width="50" height="50" relative="1" as="geometry">
            <mxPoint x="320" y="725.7" as="sourcePoint" />
            <mxPoint x="220" y="725.7" as="targetPoint" />
          </mxGeometry>
        </mxCell>
        <mxCell id="aXIII2kYAIaUGzxp5K-w-11" value="" style="endArrow=classic;html=1;rounded=0;" parent="1" edge="1">
          <mxGeometry width="50" height="50" relative="1" as="geometry">
            <mxPoint x="320" y="780" as="sourcePoint" />
            <mxPoint x="320" y="1040" as="targetPoint" />
          </mxGeometry>
        </mxCell>
        <mxCell id="aXIII2kYAIaUGzxp5K-w-12" value="" style="endArrow=classic;html=1;rounded=0;" parent="1" edge="1">
          <mxGeometry width="50" height="50" relative="1" as="geometry">
            <mxPoint x="500" y="780" as="sourcePoint" />
            <mxPoint x="500" y="1040" as="targetPoint" />
          </mxGeometry>
        </mxCell>
        <mxCell id="aXIII2kYAIaUGzxp5K-w-13" value="" style="curved=1;endArrow=classic;html=1;rounded=0;dashed=1;" parent="1" edge="1">
          <mxGeometry width="50" height="50" relative="1" as="geometry">
            <mxPoint x="320" y="930" as="sourcePoint" />
            <mxPoint x="320" y="240" as="targetPoint" />
            <Array as="points">
              <mxPoint x="130" y="940" />
              <mxPoint y="870" />
              <mxPoint x="10" y="520" />
              <mxPoint y="230" />
            </Array>
          </mxGeometry>
        </mxCell>
        <mxCell id="kK_X9jrzd6C3AoxYNmiB-1" value="&lt;font style=&quot;font-size: 14px;&quot;&gt;Parquet&lt;/font&gt;" style="text;strokeColor=none;align=center;fillColor=none;html=1;verticalAlign=middle;whiteSpace=wrap;rounded=0;" vertex="1" parent="1">
          <mxGeometry x="366.97" y="646" width="75.03" height="28" as="geometry" />
        </mxCell>
        <mxCell id="kK_X9jrzd6C3AoxYNmiB-3" value="" style="shape=image;verticalLabelPosition=bottom;labelBackgroundColor=default;verticalAlign=top;aspect=fixed;imageAspect=0;image=https://cdn.pixabay.com/photo/2022/01/30/13/33/github-6980894_1280.png;" vertex="1" parent="1">
          <mxGeometry x="-65" y="364" width="145.89" height="145.89" as="geometry" />
        </mxCell>
      </root>
    </mxGraphModel>
  </diagram>
</mxfile>
